<mxfile host="app.diagrams.net" agent="Mozilla/5.0 (Windows NT 10.0; Win64; x64) AppleWebKit/537.36 (KHTML, like Gecko) Chrome/136.0.0.0 Safari/537.36 Edg/136.0.0.0" version="27.0.5">
  <diagram name="第 1 页" id="FP3_APTgtLr8W4DviP4s">
    <mxGraphModel dx="948" dy="580" grid="1" gridSize="10" guides="1" tooltips="1" connect="1" arrows="1" fold="1" page="1" pageScale="1" pageWidth="827" pageHeight="1169" math="0" shadow="0">
      <root>
        <mxCell id="0" />
        <mxCell id="1" parent="0" />
        <mxCell id="tfsxut2kUmkyH52QwhzH-2" value="DispatcherServlet" style="rounded=0;whiteSpace=wrap;html=1;" vertex="1" parent="1">
          <mxGeometry x="230" y="210" width="200" height="60" as="geometry" />
        </mxCell>
        <mxCell id="tfsxut2kUmkyH52QwhzH-3" value="HandlerMapping" style="rounded=0;whiteSpace=wrap;html=1;" vertex="1" parent="1">
          <mxGeometry x="560" y="210" width="120" height="60" as="geometry" />
        </mxCell>
        <mxCell id="tfsxut2kUmkyH52QwhzH-5" value="Controller" style="rounded=0;whiteSpace=wrap;html=1;" vertex="1" parent="1">
          <mxGeometry x="560" y="380" width="120" height="60" as="geometry" />
        </mxCell>
        <mxCell id="tfsxut2kUmkyH52QwhzH-6" value="ModelAndView" style="rounded=0;whiteSpace=wrap;html=1;" vertex="1" parent="1">
          <mxGeometry x="370" y="380" width="120" height="60" as="geometry" />
        </mxCell>
        <mxCell id="tfsxut2kUmkyH52QwhzH-7" value="ViewResolver" style="rounded=0;whiteSpace=wrap;html=1;" vertex="1" parent="1">
          <mxGeometry x="150" y="380" width="120" height="60" as="geometry" />
        </mxCell>
        <mxCell id="tfsxut2kUmkyH52QwhzH-8" value="视图组件" style="whiteSpace=wrap;html=1;aspect=fixed;" vertex="1" parent="1">
          <mxGeometry x="270" y="505" width="80" height="80" as="geometry" />
        </mxCell>
        <mxCell id="tfsxut2kUmkyH52QwhzH-10" value="" style="rounded=0;whiteSpace=wrap;html=1;" vertex="1" parent="1">
          <mxGeometry x="485" y="520" width="270" height="205" as="geometry" />
        </mxCell>
        <mxCell id="tfsxut2kUmkyH52QwhzH-11" value="Model" style="text;html=1;align=center;verticalAlign=middle;whiteSpace=wrap;rounded=0;" vertex="1" parent="1">
          <mxGeometry x="590" y="530" width="60" height="30" as="geometry" />
        </mxCell>
        <mxCell id="tfsxut2kUmkyH52QwhzH-12" value="Service" style="rounded=0;whiteSpace=wrap;html=1;" vertex="1" parent="1">
          <mxGeometry x="560" y="570" width="120" height="60" as="geometry" />
        </mxCell>
        <mxCell id="tfsxut2kUmkyH52QwhzH-13" value="Mapper" style="rounded=0;whiteSpace=wrap;html=1;" vertex="1" parent="1">
          <mxGeometry x="560" y="650" width="120" height="60" as="geometry" />
        </mxCell>
      </root>
    </mxGraphModel>
  </diagram>
</mxfile>
